# xmcd
#
# Track frame offsets: 
# 150
# 20555
# 36013
# 49629
# 67035
# 84742
# 108823
#
# Disc length: 1791 seconds
# Submitted via: tkcNetwork 1.0
# Revision: 0
# Processed by: cddbd v1.5.1PL0 Copyright (c) Steve Scherf et al.
#
DISCID=5306fd07
DTITLE=Passion'd Flower - Return of the Ugly Warriour
DYEAR=1900
DGENRE=
TTITLE0=The Legend
TTITLE1=The Sick Rose
TTITLE2=Shoulderman
TTITLE3=The Photograph
TTITLE4=Eden Falls
TTITLE5=Dream (in the making)
TTITLE6=Full Circle
EXTD=
EXTT0=
EXTT1=
EXTT2=
EXTT3=
EXTT4=
EXTT5=
EXTT6=
PLAYORDER=
